<svg width="36" height="35" viewBox="0 0 36 35" fill="none" xmlns="http://www.w3.org/2000/svg">
<path d="M1.94908 18.715C2.61875 19.3847 3.70449 19.3847 4.37416 18.715C5.04383 18.0453 5.04383 16.9596 4.37416 16.2899C3.70449 15.6203 2.61875 15.6203 1.94908 16.2899C1.27942 16.9596 1.27942 18.0453 1.94908 18.715Z" fill="#000099"/>
<path d="M7.52721 18.7131C8.19687 19.3827 9.28262 19.3827 9.95229 18.7131C10.622 18.0434 10.622 16.9576 9.95228 16.288C9.28262 15.6183 8.19687 15.6183 7.52721 16.288C6.85754 16.9576 6.85754 18.0434 7.52721 18.7131Z" fill="#000099"/>
<path d="M13.496 18.9006C14.1656 19.5702 15.2514 19.5702 15.921 18.9006C16.5907 18.2309 16.5907 17.1451 15.921 16.4755C15.2514 15.8058 14.1656 15.8058 13.496 16.4755C12.8263 17.1451 12.8263 18.2309 13.496 18.9006Z" fill="#000099"/>
<path d="M18.6913 18.715C19.3609 19.3847 20.4467 19.3847 21.1163 18.715C21.786 18.0453 21.786 16.9596 21.1163 16.2899C20.4467 15.6203 19.3609 15.6203 18.6913 16.2899C18.0216 16.9596 18.0216 18.0453 18.6913 18.715Z" fill="#000099"/>
<path d="M24.2772 18.7111C24.9469 19.3808 26.0326 19.3808 26.7023 18.7111C27.3719 18.0414 27.372 16.9557 26.7023 16.286C26.0326 15.6164 24.9469 15.6164 24.2772 16.286C23.6075 16.9557 23.6075 18.0414 24.2772 18.7111Z" fill="#000099"/>
<path d="M31.7694 18.7131C32.4391 19.3827 33.5248 19.3827 34.1945 18.7131C34.8641 18.0434 34.8641 16.9576 34.1945 16.288C33.5248 15.6183 32.4391 15.6183 31.7694 16.288C31.0997 16.9576 31.0997 18.0434 31.7694 18.7131Z" fill="#000099"/>
<path d="M28.0194 14.9689C28.6891 15.6386 29.7748 15.6386 30.4445 14.9689C31.1141 14.2992 31.1141 13.2135 30.4445 12.5438C29.7748 11.8742 28.6891 11.8742 28.0194 12.5438C27.3497 13.2135 27.3497 14.2992 28.0194 14.9689Z" fill="#000099"/>
<path d="M24.2694 11.2209C24.9391 11.8905 26.0248 11.8905 26.6945 11.2209C27.3641 10.5512 27.3641 9.46546 26.6945 8.79579C26.0248 8.12612 24.9391 8.12612 24.2694 8.79579C23.5997 9.46546 23.5997 10.5512 24.2694 11.2209Z" fill="#000099"/>
<path d="M20.5272 7.47868C21.1969 8.14835 22.2826 8.14835 22.9523 7.47868C23.622 6.80901 23.622 5.72327 22.9523 5.0536C22.2826 4.38394 21.1969 4.38394 20.5272 5.0536C19.8575 5.72327 19.8575 6.80901 20.5272 7.47868Z" fill="#000099"/>
<path d="M16.785 3.73259C17.4547 4.40225 18.5404 4.40225 19.2101 3.73259C19.8798 3.06292 19.8798 1.97718 19.2101 1.30751C18.5404 0.637843 17.4547 0.637843 16.785 1.30751C16.1154 1.97718 16.1154 3.06292 16.785 3.73259Z" fill="#000099"/>
<path d="M28.0194 22.4552C28.6891 23.1249 29.7748 23.1249 30.4445 22.4552C31.1141 21.7856 31.1141 20.6998 30.4445 20.0302C29.7748 19.3605 28.6891 19.3605 28.0194 20.0302C27.3497 20.6998 27.3497 21.7856 28.0194 22.4552Z" fill="#000099"/>
<path d="M24.2772 26.2052C24.9469 26.8749 26.0326 26.8749 26.7023 26.2052C27.372 25.5356 27.372 24.4498 26.7023 23.7802C26.0326 23.1105 24.9469 23.1105 24.2772 23.7802C23.6075 24.4498 23.6075 25.5356 24.2772 26.2052Z" fill="#000099"/>
<path d="M20.5272 29.9494C21.1969 30.619 22.2826 30.619 22.9523 29.9494C23.622 29.2797 23.622 28.194 22.9523 27.5243C22.2826 26.8546 21.1969 26.8546 20.5272 27.5243C19.8575 28.194 19.8575 29.2797 20.5272 29.9494Z" fill="#000099"/>
<path d="M16.785 33.6916C17.4547 34.3612 18.5404 34.3612 19.2101 33.6916C19.8798 33.0219 19.8798 31.9362 19.2101 31.2665C18.5404 30.5968 17.4547 30.5968 16.785 31.2665C16.1154 31.9362 16.1154 33.0219 16.785 33.6916Z" fill="#000099"/>
</svg>
