<svg width="40" height="40" viewBox="0 0 40 40" fill="none" xmlns="http://www.w3.org/2000/svg">
<circle cx="19.9999" cy="20" r="20" fill="white"/>
<path d="M13.1814 27.429C13.5185 27.429 13.7918 27.1557 13.7918 26.8186C13.7918 26.4815 13.5185 26.2083 13.1814 26.2083C12.8443 26.2083 12.571 26.4815 12.571 26.8186C12.571 27.1557 12.8443 27.429 13.1814 27.429Z" fill="#000099"/>
<path d="M26.8895 13.7207C27.2266 13.7207 27.4999 13.4475 27.4999 13.1104C27.4999 12.7733 27.2266 12.5 26.8895 12.5C26.5524 12.5 26.2791 12.7733 26.2791 13.1104C26.2791 13.4475 26.5524 13.7207 26.8895 13.7207Z" fill="#000099"/>
<path d="M25.1176 13.7207C25.4547 13.7207 25.728 13.4475 25.728 13.1104C25.728 12.7733 25.4547 12.5 25.1176 12.5C24.7805 12.5 24.5073 12.7733 24.5073 13.1104C24.5073 13.4475 24.7805 13.7207 25.1176 13.7207Z" fill="#000099"/>
<path d="M26.8895 15.722C27.2266 15.722 27.4999 15.4488 27.4999 15.1117C27.4999 14.7746 27.2266 14.5013 26.8895 14.5013C26.5524 14.5013 26.2791 14.7746 26.2791 15.1117C26.2791 15.4488 26.5524 15.722 26.8895 15.722Z" fill="#000099"/>
<path d="M23.1164 13.7207C23.4535 13.7207 23.7268 13.4475 23.7268 13.1104C23.7268 12.7733 23.4535 12.5 23.1164 12.5C22.7793 12.5 22.506 12.7733 22.506 13.1104C22.506 13.4475 22.7793 13.7207 23.1164 13.7207Z" fill="#000099"/>
<path d="M19.114 13.7207C19.4511 13.7207 19.7244 13.4475 19.7244 13.1104C19.7244 12.7733 19.4511 12.5 19.114 12.5C18.7769 12.5 18.5037 12.7733 18.5037 13.1104C18.5037 13.4475 18.7769 13.7207 19.114 13.7207Z" fill="#000099"/>
<path d="M21.1153 13.7207C21.4524 13.7207 21.7256 13.4475 21.7256 13.1104C21.7256 12.7733 21.4524 12.5 21.1153 12.5C20.7782 12.5 20.5049 12.7733 20.5049 13.1104C20.5049 13.4475 20.7782 13.7207 21.1153 13.7207Z" fill="#000099"/>
<path d="M17.1128 13.7207C17.4499 13.7207 17.7231 13.4475 17.7231 13.1104C17.7231 12.7733 17.4499 12.5 17.1128 12.5C16.7757 12.5 16.5024 12.7733 16.5024 13.1104C16.5024 13.4475 16.7757 13.7207 17.1128 13.7207Z" fill="#000099"/>
<path d="M15.1115 13.7207C15.4486 13.7207 15.7219 13.4475 15.7219 13.1104C15.7219 12.7733 15.4486 12.5 15.1115 12.5C14.7744 12.5 14.5012 12.7733 14.5012 13.1104C14.5012 13.4475 14.7744 13.7207 15.1115 13.7207Z" fill="#000099"/>
<path d="M13.1103 13.7207C13.4474 13.7207 13.7207 13.4475 13.7207 13.1104C13.7207 12.7733 13.4474 12.5 13.1103 12.5C12.7732 12.5 12.4999 12.7733 12.4999 13.1104C12.4999 13.4475 12.7732 13.7207 13.1103 13.7207Z" fill="#000099"/>
<path d="M26.8896 17.7232C27.2267 17.7232 27.5 17.4499 27.5 17.1128C27.5 16.7757 27.2267 16.5024 26.8896 16.5024C26.5525 16.5024 26.2792 16.7757 26.2792 17.1128C26.2792 17.4499 26.5525 17.7232 26.8896 17.7232Z" fill="#000099"/>
<path d="M26.8896 19.7245C27.2267 19.7245 27.5 19.4512 27.5 19.1141C27.5 18.777 27.2267 18.5037 26.8896 18.5037C26.5525 18.5037 26.2792 18.777 26.2792 19.1141C26.2792 19.4512 26.5525 19.7245 26.8896 19.7245Z" fill="#000099"/>
<path d="M26.8896 21.7257C27.2267 21.7257 27.5 21.4524 27.5 21.1153C27.5 20.7782 27.2267 20.5049 26.8896 20.5049C26.5525 20.5049 26.2792 20.7782 26.2792 21.1153C26.2792 21.4524 26.5525 21.7257 26.8896 21.7257Z" fill="#000099"/>
<path d="M26.8896 23.7269C27.2267 23.7269 27.5 23.4536 27.5 23.1165C27.5 22.7794 27.2267 22.5062 26.8896 22.5062C26.5525 22.5062 26.2792 22.7794 26.2792 23.1165C26.2792 23.4536 26.5525 23.7269 26.8896 23.7269Z" fill="#000099"/>
<path d="M26.8896 27.4996C27.2267 27.4996 27.5 27.2263 27.5 26.8892C27.5 26.5521 27.2267 26.2789 26.8896 26.2789C26.5525 26.2789 26.2792 26.5521 26.2792 26.8892C26.2792 27.2263 26.5525 27.4996 26.8896 27.4996Z" fill="#000099"/>
<path d="M26.8896 25.7281C27.2267 25.7281 27.5 25.4548 27.5 25.1177C27.5 24.7806 27.2267 24.5073 26.8896 24.5073C26.5525 24.5073 26.2792 24.7806 26.2792 25.1177C26.2792 25.4548 26.5525 25.7281 26.8896 25.7281Z" fill="#000099"/>
<path d="M23.5159 17.1656C23.853 17.1656 24.1263 16.8924 24.1263 16.5553C24.1263 16.2182 23.853 15.9449 23.5159 15.9449C23.1788 15.9449 22.9055 16.2182 22.9055 16.5553C22.9055 16.8924 23.1788 17.1656 23.5159 17.1656Z" fill="#000099"/>
<path d="M16.4405 24.241C16.7776 24.241 17.0509 23.9677 17.0509 23.6306C17.0509 23.2935 16.7776 23.0203 16.4405 23.0203C16.1034 23.0203 15.8301 23.2935 15.8301 23.6306C15.8301 23.9677 16.1034 24.241 16.4405 24.241Z" fill="#000099"/>
<path d="M19.1872 21.5001C19.5255 21.5001 19.7997 21.2259 19.7997 20.8876C19.7997 20.5493 19.5255 20.2751 19.1872 20.2751C18.8489 20.2751 18.5747 20.5493 18.5747 20.8876C18.5747 21.2259 18.8489 21.5001 19.1872 21.5001Z" fill="#000099"/>
<path d="M22.0737 18.614C22.412 18.614 22.6862 18.3397 22.6862 18.0015C22.6862 17.6632 22.412 17.389 22.0737 17.389C21.7354 17.389 21.4612 17.6632 21.4612 18.0015C21.4612 18.3397 21.7354 18.614 22.0737 18.614Z" fill="#000099"/>
<path d="M14.9983 25.6894C15.3365 25.6894 15.6108 25.4152 15.6108 25.0769C15.6108 24.7386 15.3365 24.4644 14.9983 24.4644C14.66 24.4644 14.3857 24.7386 14.3857 25.0769C14.3857 25.4152 14.66 25.6894 14.9983 25.6894Z" fill="#000099"/>
<path d="M21.0635 19.0117C21.3027 19.2508 21.3027 19.6381 21.0635 19.878C20.8244 20.1179 20.4371 20.1171 20.1972 19.878C19.9573 19.6388 19.9581 19.2516 20.1972 19.0117C20.4364 18.7718 20.8236 18.7725 21.0635 19.0117Z" fill="#000099"/>
<path d="M25.3939 14.6809C25.6331 14.9201 25.6331 15.3073 25.3939 15.5472C25.1548 15.7871 24.7675 15.7864 24.5276 15.5472C24.2885 15.3081 24.2885 14.9208 24.5276 14.6809C24.7668 14.441 25.154 14.4418 25.3939 14.6809Z" fill="#000099"/>
<path d="M18.3185 21.7563C18.5576 21.9954 18.5576 22.3827 18.3185 22.6226C18.0793 22.8625 17.6921 22.8617 17.4522 22.6226C17.213 22.3835 17.213 21.9962 17.4522 21.7563C17.6913 21.5164 18.0786 21.5172 18.3185 21.7563Z" fill="#000099"/>
</svg>
